<?xml version="1.0" ?><svg style="enable-background:new 0 0 64 64;" version="1.1" viewBox="0 0 64 64" xml:space="preserve" xmlns="http://www.w3.org/2000/svg" xmlns:xlink="http://www.w3.org/1999/xlink"><style type="text/css">
	.st0{fill:none;stroke:#000000;stroke-width:2;stroke-linecap:round;stroke-linejoin:round;stroke-miterlimit:10;}
	.st1{fill:none;stroke:#000000;stroke-width:2;stroke-linecap:round;stroke-linejoin:round;}
</style><g id="guides"/><g id="_x32_5._checking"/><g id="_x32_4._faucet"/><g id="_x32_3._drink"/><g id="_x32_2._hotel_key"/><g id="_x32_1._rating"/><g id="_x32_0._map"/><g id="_x31_9._wifi"/><g id="_x31_8._swimming_pool"/><g id="_x31_7._booking"/><g id="_x31_6._pasport"/><g id="_x31_5._coffee_cup"/><g id="_x31_4._bathtub"/><g id="_x31_3._bedroom"/><g id="_x31_2._air_conditioner"/><g id="_x31_1._breakfast"/><g id="_x31_0._parking_lot"><rect class="st0" height="5" width="11" x="6" y="48"/><line class="st0" x1="60" x2="4" y1="53" y2="53"/><rect class="st0" height="23" width="5" x="9" y="25"/><circle class="st0" cx="11.5" cy="17.5" r="7.5"/><path class="st0" d="M10,21v-7h2c1.1045694,0,2,0.8954306,2,2s-0.8954306,2-2,2h-1"/><path class="st0" d="M35,48.5c0,2.4852829-2.0147171,4.5-4.5,4.5S26,50.9852829,26,48.5   c0-0.5260582,0.0902672-1.0310364,0.2561588-1.5002823C26.8739929,45.2520752,28.5407772,44,30.5,44   C32.9852829,44,35,46.0147171,35,48.5z"/><path class="st0" d="M55,48.5c0,2.4852829-2.0147171,4.5-4.5,4.5S46,50.9852829,46,48.5   c0-0.5260582,0.0902672-1.0310364,0.2561607-1.5002823C46.8739929,45.2520752,48.5407791,44,50.5,44   C52.9852829,44,55,46.0147171,55,48.5z"/><path class="st0" d="M51,48.5c0,0.2761421-0.2238579,0.5-0.5,0.5S50,48.7761421,50,48.5   c0-0.0584526,0.0100288-0.1145592,0.0284615-0.1666985C50.0971107,48.1391182,50.2823105,48,50.5,48   C50.7761421,48,51,48.2238579,51,48.5z"/><path class="st0" d="M31,48.5c0,0.2761421-0.2238579,0.5-0.5,0.5S30,48.7761421,30,48.5   c0-0.0584526,0.0100288-0.1145592,0.0284615-0.1666985C30.0971107,48.1391182,30.2823086,48,30.5,48   C30.7761421,48,31,48.2238579,31,48.5z"/><line class="st0" x1="25.999752" x2="21" y1="47" y2="47"/><line class="st0" x1="46.0001984" x2="34.9995041" y1="47" y2="47"/><line class="st0" x1="60" x2="54.9999161" y1="47" y2="47"/><path class="st0" d="M23,47v-6.0000038C23,38.7908592,24.7908592,37,26.9999962,37H27v-3.1875   C27,30.6023445,29.6023445,28,32.8124886,28h8.9060402c2.6748276,0,5.1726761,1.3368092,6.6564026,3.5623989L52,37h0.0000076   C55.3137131,37,58,39.6862869,58,42.9999924V47"/><path class="st0" d="M41,32v5h5v-0.0000038C46,34.238575,43.761425,32,41.0000038,32H41z"/><path class="st0" d="M37,37h-6v-1.9791679C31,33.3524742,32.3524742,32,34.0208321,32H37V37z"/><line class="st0" x1="41" x2="43" y1="41" y2="41"/></g><g id="_x39_._room_service"/><g id="_x38_._elevator"/><g id="_x37_._reception"/><g id="_x36_._relax"/><g id="_x35_._car_rental"/><g id="_x34_._rental"/><g id="_x33_._smoking_area"/><g id="_x32_._exercise"/><g id="_x31_._luggage"/></svg>